<svg width="30.856" height="30.856" xmlns="http://www.w3.org/2000/svg"><path d="M13.102 12.956c0 .703 0 1.786-1.311 1.786-.798 0-1.121-.437-1.311-1.159-.703.836-1.558 1.273-2.603 1.273-2.565 0-4.521-2.185-4.521-5.262 0-3.001 2.014-5.3 4.52-5.3 1.008 0 1.996.399 2.604 1.254.076-.665.646-1.14 1.31-1.14 1.312 0 1.312 1.083 1.312 1.786zm-4.844-.608c1.425 0 2.109-1.444 2.109-2.754 0-1.311-.665-2.792-2.11-2.792-1.5 0-2.165 1.481-2.165 2.792 0 1.31.684 2.754 2.166 2.754zm3.354 10.985c-.684 0-1.292-.532-2.166-.532-1.558 0-2.298 1.387-2.298 2.793 0 1.349.817 2.755 2.298 2.755.684 0 1.71-.57 2.033-.57.646 0 1.178.551 1.178 1.197 0 1.405-2.356 1.88-3.343 1.88-2.945 0-4.901-2.412-4.901-5.262 0-2.773 2.014-5.3 4.9-5.3 1.084 0 3.344.399 3.344 1.729-.001.569-.4 1.31-1.045 1.31zM17.756 1.52c0-.912.569-1.52 1.367-1.52s1.368.608 1.368 1.52v3.723a3.96 3.96 0 0 1 2.603-.95c2.944 0 4.407 2.754 4.407 5.414 0 2.584-1.747 5.148-4.503 5.148-.93 0-1.994-.418-2.507-1.254-.171.722-.608 1.14-1.368 1.14-.798 0-1.367-.608-1.367-1.52zm4.882 10.828c1.425 0 2.128-1.481 2.128-2.754 0-1.292-.703-2.792-2.128-2.792-1.463 0-2.146 1.368-2.146 2.697 0 1.33.645 2.849 2.146 2.849zm4.464 16.874c0 .912-.57 1.521-1.367 1.521-.76 0-1.197-.418-1.367-1.14-.514.835-1.578 1.253-2.508 1.253-2.755 0-4.503-2.564-4.503-5.147 0-2.66 1.463-5.414 4.407-5.414.95 0 1.88.322 2.604.949v-3.723c0-.913.569-1.52 1.367-1.52s1.367.608 1.367 1.52zm-4.882-6.421c-1.425 0-2.128 1.501-2.128 2.793 0 1.273.703 2.755 2.128 2.755 1.5 0 2.147-1.521 2.147-2.85 0-1.33-.684-2.698-2.147-2.698z" fill="#fff"/></svg>