<svg xmlns="http://www.w3.org/2000/svg" viewBox="0 0 36 36"><g fill="#fff" stroke-width=".541"><path d="M23.386 12.476c0-.969.73-1.51 1.562-1.51.832 0 1.561.541 1.561 1.51v6.759c0 1.782 1.284 3.075 3.124 3.075 1.762 0 3.123-1.37 3.123-3.075v-6.76c0-.968.73-1.51 1.561-1.51.834 0 1.541.542 1.541 1.51v6.915c0 3.254-3.03 5.713-6.225 5.713-3.235 0-6.247-2.42-6.247-5.713zM12.255 12.557c0-.91.543-1.51 1.511-1.51h3.429c2.847 0 4.958 1.86 4.958 4.629 0 2.827-2.189 4.59-4.842 4.59h-2.15v3.177c0 .968-.619 1.51-1.452 1.51s-1.453-.542-1.453-1.51V12.557zm2.906 5.153h1.975c1.22 0 1.995-.891 1.995-2.054 0-1.162-.775-2.053-1.995-2.053H15.16zM6.803 10.873c1.415 0 4.164.465 4.164 2.17 0 .697-.484 1.297-1.2 1.297-.795 0-1.336-.678-2.964-.678-2.4 0-3.64 2.034-3.64 4.396 0 2.305 1.258 4.28 3.64 4.28 1.628 0 2.285-.813 3.08-.813.872 0 1.278.872 1.278 1.316 0 1.86-2.924 2.286-4.357 2.286C2.872 25.127.142 22.009.142 18c-.001-4.028 2.71-7.127 6.661-7.127z"/></g></svg>